HIERARCHY
ROOT Hips
{
	OFFSET -0.001795 -0.223333 0.028219
	CHANNELS 6 Xposition Yposition Zposition Zrotation Yrotation Xrotation 
	JOINT LeftUpLeg
	{
		OFFSET 0.069520 -0.091406 -0.006815
		CHANNELS 3 Zrotation Yrotation Xrotation
		JOINT LeftLeg
		{
			OFFSET 0.034277 -0.375199 -0.004496
			CHANNELS 3 Zrotation Yrotation Xrotation
			JOINT LeftFoot
			{
				OFFSET -0.013596 -0.397961 -0.043693
				CHANNELS 3 Zrotation Yrotation Xrotation
				JOINT LeftToe
				{
					OFFSET 0.026358 -0.055791 0.119288
					CHANNELS 3 Zrotation Yrotation Xrotation
					End Site
					{
						OFFSET 0.000000 0.000000 0.000000
					}
				}
			}
		}
	}
	JOINT RightUpLeg
	{
		OFFSET -0.067670 -0.090522 -0.004320
		CHANNELS 3 Zrotation Yrotation Xrotation
		JOINT RightLeg
		{
			OFFSET -0.038290 -0.382569 -0.008850
			CHANNELS 3 Zrotation Yrotation Xrotation
			JOINT RightFoot
			{
				OFFSET 0.015774 -0.398415 -0.042312
				CHANNELS 3 Zrotation Yrotation Xrotation
				JOINT RightToe
				{
					OFFSET -0.025372 -0.048144 0.123348
					CHANNELS 3 Zrotation Yrotation Xrotation
					End Site
					{
						OFFSET 0.000000 0.000000 0.000000
					}
				}
			}
		}
	}
	JOINT Spine
	{
		OFFSET -0.002533 0.108963 -0.026696
		CHANNELS 3 Zrotation Yrotation Xrotation
		JOINT Spine1
		{
			OFFSET 0.005487 0.135180 0.001092
			CHANNELS 3 Zrotation Yrotation Xrotation
			JOINT Spine2
			{
				OFFSET 0.001457 0.052922 0.025425
				CHANNELS 3 Zrotation Yrotation Xrotation
				JOINT Neck
				{
					OFFSET -0.002778 0.213870 -0.042857
					CHANNELS 3 Zrotation Yrotation Xrotation
					JOINT Head
					{
						OFFSET 0.005152 0.064970 0.051349
						CHANNELS 3 Zrotation Yrotation Xrotation
						End Site
						{
							OFFSET 0.000000 0.000000 0.000000
						}
					}
				}
				JOINT LeftShoulder
				{
					OFFSET 0.078845 0.121749 -0.034090
					CHANNELS 3 Zrotation Yrotation Xrotation
					JOINT LeftArm
					{
						OFFSET 0.090977 0.030469 -0.008868
						CHANNELS 3 Zrotation Yrotation Xrotation
						JOINT LeftForeArm
						{
							OFFSET 0.259612 -0.012772 -0.027456
							CHANNELS 3 Zrotation Yrotation Xrotation
							JOINT LeftHand
							{
								OFFSET 0.249234 0.008986 -0.001171
								CHANNELS 3 Zrotation Yrotation Xrotation
								End Site
								{
									OFFSET 0.000000 0.000000 0.000000
								}
							}
						}
					}
				}
				JOINT RightShoulder
				{
					OFFSET -0.081759 0.118833 -0.038615
					CHANNELS 3 Zrotation Yrotation Xrotation
					JOINT RightArm
					{
						OFFSET -0.096012 0.032551 -0.009143
						CHANNELS 3 Zrotation Yrotation Xrotation
						JOINT RightForeArm
						{
							OFFSET -0.253742 -0.013329 -0.021401
							CHANNELS 3 Zrotation Yrotation Xrotation
							JOINT RightHand
							{
								OFFSET -0.255298 0.007772 -0.005559
								CHANNELS 3 Zrotation Yrotation Xrotation
								End Site
								{
									OFFSET 0.000000 0.000000 0.000000
								}
							}
						}
					}
				}
			}
		}
	}
}
MOTION
Frames: 5
Frame Time: 0.050000
-0.002524 0.907591 0.051378 2.281148 -2.925904 0.675851 7.383902 -0.311966 -10.512654 12.317075 -4.953619 25.687267 -13.547987 -21.606902 8.557146 0.000000 0.000000 0.000000 -6.200594 0.716004 -11.131752 -0.107843 2.036101 36.127651 -1.401662 -2.353973 -2.415298 0.000000 0.000000 0.000000 -0.994682 -0.309103 11.222058 -4.066274 1.513656 -28.257858 2.626970 -9.577096 16.689625 -7.071884 3.857824 -25.460044 0.000000 0.000000 0.000000 -7.894463 -3.966161 2.332848 -35.000478 -53.904562 12.058942 120.906050 -27.546893 -35.429245 0.000000 0.000000 0.000000 -3.375808 5.432666 2.198760 22.702536 48.814690 2.910681 -121.520977 25.080765 -43.650879 0.000000 0.000000 0.000000 
-0.004193 0.893345 0.052812 1.739127 -3.385262 -0.145373 8.558432 -0.171877 -9.952078 13.096228 -5.491525 27.714175 -13.224941 -25.959548 3.005803 0.000000 0.000000 0.000000 -6.003780 0.760435 -11.761160 0.388167 2.124249 39.386287 -1.636033 -1.252137 -5.511804 0.000000 0.000000 0.000000 -0.336833 -0.392902 11.709260 -4.750044 1.651910 -28.858855 2.594664 -9.890992 16.470035 -6.338296 3.381265 -24.977488 0.000000 0.000000 0.000000 -8.517801 -3.229865 2.101753 -36.575758 -52.813683 12.344647 123.904749 -28.894989 -39.591889 0.000000 0.000000 0.000000 -3.600602 4.909500 2.096602 24.229889 48.729301 3.363365 -123.548929 26.140185 -47.304584 0.000000 0.000000 0.000000 
-0.005894 0.878200 0.052008 1.533583 -5.201443 -0.565571 9.870340 0.014483 -10.176813 11.836937 -5.341238 31.668445 -10.372939 -26.388948 -3.869413 0.000000 0.000000 0.000000 -5.970682 0.883414 -13.295519 1.427122 2.256410 43.232408 -2.932148 -2.508793 -9.690876 0.000000 0.000000 0.000000 -0.304406 -0.381247 11.840875 -4.136803 1.513311 -29.492384 2.165983 -9.627837 17.403415 -5.706192 2.881136 -26.230637 0.000000 0.000000 0.000000 -8.438647 -1.655645 1.467356 -37.123485 -54.701298 13.486717 124.868844 -25.918200 -35.240290 0.000000 0.000000 0.000000 -4.250147 4.305310 2.050777 23.409350 49.836048 2.927730 -123.387830 26.165050 -47.765709 0.000000 0.000000 0.000000 
-0.007188 0.874225 0.049718 1.325776 -6.863728 -0.696144 10.360016 0.127644 -10.291209 10.511052 -4.789528 33.628179 -8.313078 -23.028386 -5.688580 0.000000 0.000000 0.000000 -6.452970 0.922394 -13.943798 2.845041 1.916247 43.789765 -3.288123 -2.769510 -10.734809 0.000000 0.000000 0.000000 0.915599 -0.513953 12.327218 -4.702177 1.623564 -31.412534 1.607294 -11.421784 19.181140 -6.698315 2.953576 -29.203709 0.000000 0.000000 0.000000 -7.936026 -0.369100 1.121383 -36.019037 -57.907768 14.683745 122.180588 -19.702425 -22.064427 0.000000 0.000000 0.000000 -6.194486 4.036447 2.435792 23.582320 51.262154 2.298938 -124.013473 25.254657 -48.591090 0.000000 0.000000 0.000000 
-0.008462 0.890041 0.047663 1.328762 -8.788763 0.096917 10.382264 0.175543 -9.766586 8.887881 -3.770889 32.771221 -7.577769 -18.630654 -2.962127 0.000000 0.000000 0.000000 -6.373784 0.950177 -13.362502 3.222840 1.725860 39.446577 -3.214263 -4.194142 -7.595566 0.000000 0.000000 0.000000 1.319088 -0.527741 11.913028 -3.556840 1.430300 -32.271276 -0.139925 -13.459346 19.715034 -6.206984 2.231752 -30.360432 0.000000 0.000000 0.000000 -7.661773 -0.058854 1.239234 -30.802423 -59.152132 12.939836 120.772318 -15.031642 -12.702071 0.000000 0.000000 0.000000 -6.650824 4.028552 2.691118 25.572772 54.646740 2.510164 -125.021936 27.302085 -54.122423 0.000000 0.000000 0.000000 
